<?xml version="1.0" encoding="UTF-8" standalone="no"?>
<!DOCTYPE svg PUBLIC "-//W3C//DTD SVG 1.1//EN" "http://www.w3.org/Graphics/SVG/1.1/DTD/svg11.dtd">
<svg width="100%" height="100%" viewBox="0 0 960 206" version="1.1" xmlns="http://www.w3.org/2000/svg" xmlns:xlink="http://www.w3.org/1999/xlink" xml:space="preserve" style="fill-rule:evenodd;clip-rule:evenodd;stroke-linejoin:round;stroke-miterlimit:2;">
    <g transform="matrix(1,0,0,1,495.469,52.4961)">
        <path d="M0,0.072L17.105,0.072L25.363,8.33L29.492,13.049L35.391,18.947L39.52,23.666L46.008,30.154L50.137,34.873L56.625,41.361L60.754,46.08L66.652,51.979L70.781,56.697L77.27,63.186L81.398,67.904L84.348,70.854L84.348,7.74L82.578,4.201L82.578,3.021L80.219,1.842L80.219,0.072L101.453,0.072L100.863,2.432L97.914,5.971L97.324,7.74L96.734,96.807L95.555,97.986L92.605,97.986L84.938,90.318L80.809,85.6L73.73,78.521L69.602,73.803L64.293,68.494L60.164,63.775L54.266,57.877L50.137,53.158L43.648,46.67L39.52,41.951L33.031,35.463L28.902,30.744L22.414,24.256L18.285,19.537L17.105,18.357L17.105,90.318L18.875,93.857L18.875,95.037L20.645,95.627L21.234,97.396L20.645,97.986L0,97.986L0.59,95.627L3.539,92.088L4.129,90.318L4.129,7.74L2.359,3.611L0,1.842L0,0.072Z" style="fill:white;fill-rule:nonzero;"/>
    </g>
    <g transform="matrix(1,0,0,1,611.668,52.4961)">
        <path d="M0,0.072L35.391,0.072L45.418,2.432L54.855,6.561L62.523,11.869L67.832,17.178L71.961,23.076L75.5,30.154L77.859,39.002L78.449,44.311L78.449,53.158L76.68,62.596L72.551,72.623L68.422,79.111L63.113,85.6L57.215,90.318L48.367,95.037L40.699,97.396L37.16,97.986L0,97.986L0.59,95.627L3.539,92.088L4.129,90.318L4.129,7.74L2.359,4.201L2.359,3.021L0,1.842L0,0.072ZM16.516,9.51L16.516,87.369L17.695,88.549L34.211,88.549L42.469,86.779L49.547,83.83L54.855,79.701L58.984,75.572L62.523,69.674L65.473,60.236L66.652,50.799L66.063,40.771L63.703,31.924L59.574,23.666L53.676,17.178L47.777,13.639L42.469,11.279L33.621,9.51L16.516,9.51Z" style="fill:white;fill-rule:nonzero;"/>
    </g>
    <g transform="matrix(1,0,0,1,700.734,52.4961)">
        <path d="M0,0.072L37.75,0.072L46.598,1.842L54.855,5.971L58.395,8.92L61.344,13.639L62.523,17.178L63.113,21.307L63.113,26.615L60.754,34.283L56.625,39.592L51.906,43.131L43.059,47.26L40.699,47.85L36.57,47.85L36.57,49.029L39.52,50.209L47.188,56.697L54.855,64.365L62.523,74.393L67.832,82.65L73.73,92.678L77.859,96.217L77.859,97.986L56.625,97.986L57.215,95.627L58.395,94.447L57.805,90.908L52.496,79.701L46.598,70.854L41.879,64.955L36.57,59.057L31.262,54.338L24.773,50.799L20.645,49.619L20.645,42.541L33.621,40.771L41.289,37.822L46.598,34.283L49.547,29.564L50.137,27.205L50.137,21.307L48.367,17.178L46.008,14.229L39.52,11.279L33.031,10.1L18.875,10.1L17.105,11.279L17.105,90.908L19.465,94.447L21.234,96.217L21.234,97.986L0,97.986L0.59,95.627L3.539,92.088L4.129,89.729L4.129,7.74L2.359,4.201L2.359,3.021L0,1.842L0,0.072Z" style="fill:white;fill-rule:nonzero;"/>
    </g>
    <g transform="matrix(1,0,0,1,212.934,52.4961)">
        <path d="M0,0.072L65.473,0.072L69.602,10.689L69.012,13.639L66.652,12.459L64.293,10.689L61.344,10.1L16.516,9.51L16.516,39.592L24.184,39.002L58.395,38.412L63.113,34.873L64.883,34.873L64.883,53.748L62.523,53.158L58.984,50.209L56.625,49.619L16.516,49.029L16.516,88.549L60.754,87.959L64.883,86.779L67.242,84.42L70.191,85.01L65.473,97.986L0,97.986L0.59,95.627L3.539,92.088L4.129,89.729L4.129,7.74L2.359,4.201L0,1.842L0,0.072Z" style="fill:white;fill-rule:nonzero;"/>
    </g>
    <g transform="matrix(1,0,0,1,289.023,52.4961)">
        <path d="M0,0.072L23.004,0.072L22.414,2.432L20.645,4.201L21.234,7.15L24.773,12.459L30.082,18.357L35.391,24.846L40.699,30.744L46.008,37.232L48.957,40.182L54.855,33.693L60.164,27.205L66.652,20.127L71.961,13.639L76.09,8.92L78.449,5.381L77.27,3.021L76.09,0.072L96.734,0.072L96.145,2.432L90.836,6.561L85.527,13.049L80.219,18.947L74.91,25.436L60.754,41.951L56.035,47.85L57.215,50.209L92.605,91.498L97.914,96.217L97.324,97.986L74.32,97.986L74.91,95.627L76.68,93.857L76.09,90.318L71.371,83.83L65.473,77.342L60.164,70.854L54.855,64.955L49.547,58.467L48.367,57.877L47.188,60.236L38.93,69.084L34.801,73.803L24.184,85.6L19.465,92.088L20.055,95.037L21.234,96.217L21.234,97.986L0.59,97.986L1.18,95.627L7.668,90.318L12.977,83.83L19.465,76.752L24.773,70.264L31.262,63.186L36.57,56.697L41.879,50.799L40.699,48.439L35.391,41.951L27.723,33.104L6.488,8.33L4.129,5.971L4.129,4.791L1.77,3.611L0,1.842L0,0.072Z" style="fill:white;fill-rule:nonzero;"/>
    </g>
    <g transform="matrix(1,0,0,1,863.531,52.4961)">
        <path d="M0,0.072L5.309,0.072L10.027,9.51L21.234,33.693L31.852,56.697L43.059,80.881L48.957,93.268L51.906,96.217L51.906,97.986L28.902,97.986L28.902,95.627L31.852,92.088L31.852,87.959L23.594,67.904L23.004,67.314L-20.055,67.314L-28.313,87.369L-28.313,92.088L-24.773,96.807L-25.363,97.986L-45.418,97.986L-44.828,95.627L-41.289,90.908L-30.082,66.135L-22.414,49.029L-11.797,25.436L-2.359,4.201L0,0.072ZM1.18,19.537L-2.949,27.795L-9.438,42.541L-15.926,56.697L-15.926,57.877L18.875,57.877L17.105,52.568L7.668,32.514L1.77,19.537L1.18,19.537Z" style="fill:white;fill-rule:nonzero;"/>
    </g>
    <g transform="matrix(1,0,0,1,435.895,52.4961)">
        <path d="M0,0.072L5.309,0.072L10.027,9.51L18.875,28.385L27.723,47.85L37.16,67.904L43.648,82.061L48.957,93.268L51.906,96.217L51.906,97.986L28.313,97.986L28.902,95.627L31.262,94.447L31.852,92.088L31.852,87.369L23.594,67.904L23.594,66.725L-20.055,66.725L-21.824,72.033L-27.723,86.189L-28.313,87.959L-28.313,92.088L-24.773,96.217L-24.773,97.986L-45.418,97.986L-44.828,95.627L-41.879,92.088L-34.211,75.572L-27.133,59.646L-16.516,36.053L-7.078,14.818L-0.59,0.662L0,0.072ZM1.18,19.537L-2.949,28.385L-12.387,49.029L-15.926,57.877L18.875,57.877L17.105,52.568L5.898,28.385L1.77,19.537L1.18,19.537Z" style="fill:white;fill-rule:nonzero;"/>
    </g>
    <g transform="matrix(1,0,0,1,74.9102,52.4961)">
        <path d="M0,0.072L5.309,0.072L12.387,14.818L21.234,34.283L30.082,53.158L38.93,72.623L48.367,92.678L51.906,96.807L51.316,97.986L28.313,97.986L28.902,95.627L31.262,93.268L31.852,88.549L27.133,76.752L23.004,67.314L-20.055,67.314L-28.313,86.779L-28.902,90.908L-27.133,94.447L-25.363,95.627L-25.363,97.986L-45.418,97.986L-46.008,96.807L-42.469,92.678L-34.211,74.982L-24.773,53.748L-13.566,28.975L-4.129,7.74L-0.59,0.662L0,0.072ZM0.59,20.127L-4.129,30.154L-11.797,47.26L-15.926,56.697L-15.926,57.877L18.875,57.877L15.926,50.209L8.848,35.463L2.359,21.307L1.77,20.127L0.59,20.127Z" style="fill:white;fill-rule:nonzero;"/>
    </g>
    <g transform="matrix(1,0,0,1,135.664,52.4961)">
        <path d="M0,0.072L20.645,0.072L20.055,2.432L17.695,5.381L16.516,9.51L15.926,88.549L60.164,87.959L64.883,86.779L67.242,84.42L69.602,84.42L69.012,87.959L65.473,97.396L64.883,97.986L0,97.986L-0.59,96.807L2.949,92.678L4.129,87.369L4.129,10.1L2.949,5.381L-0.59,0.662L0,0.072Z" style="fill:white;fill-rule:nonzero;"/>
    </g>
    <g transform="matrix(1,0,0,1,787.441,52.4961)">
        <path d="M0,0.072L21.234,0.072L19.465,3.021L17.105,7.15L17.105,90.908L18.875,93.857L18.875,95.037L20.645,95.627L21.234,97.396L20.645,97.986L0,97.986L0.59,95.627L2.949,92.678L4.129,88.549L4.129,8.92L2.359,4.201L0,1.842L0,0.072Z" style="fill:white;fill-rule:nonzero;"/>
    </g>
</svg>